<?xml version="1.0" standalone="no"?>
<!DOCTYPE svg PUBLIC "-//W3C//DTD SVG 20010904//EN"
 "http://www.w3.org/TR/2001/REC-SVG-20010904/DTD/svg10.dtd">
<svg version="1.0" xmlns="http://www.w3.org/2000/svg"
 width="256.000000pt" height="256.000000pt" viewBox="0 0 256.000000 256.000000"
 preserveAspectRatio="xMidYMid meet">

<g transform="translate(0.000000,256.000000) scale(0.100000,-0.100000)"
fill="#000000" stroke="none">
<path d="M1145 2474 c-296 -45 -515 -153 -711 -348 -170 -170 -279 -371 -330
-606 -26 -118 -26 -362 0 -480 102 -472 463 -834 936 -936 118 -26 362 -26
480 0 235 51 436 160 606 330 170 170 279 371 330 606 26 118 26 362 0 480
-51 235 -160 436 -330 606 -166 166 -360 274 -586 325 -83 19 -327 33 -395 23z
m310 -89 c355 -57 657 -277 819 -596 168 -330 168 -688 0 -1018 -162 -319
-464 -539 -819 -596 -234 -38 -464 -1 -684 111 -598 304 -793 1061 -418 1619
169 252 444 429 747 480 103 18 248 18 355 0z"/>
<path d="M1252 1827 c-78 -78 -142 -149 -142 -157 0 -20 281 -300 301 -300 19
0 39 20 39 39 0 9 -46 62 -102 118 l-103 103 46 0 c113 0 247 -60 332 -149
186 -195 180 -491 -12 -674 -190 -182 -472 -182 -662 0 -86 82 -149 219 -149
324 0 39 -19 63 -46 57 -33 -6 -39 -32 -26 -119 35 -242 228 -436 471 -471
445 -65 780 395 581 799 -91 185 -290 312 -490 313 l-45 0 103 103 c56 56 102
109 102 118 0 19 -20 39 -40 39 -8 0 -79 -64 -158 -143z"/>
</g>
</svg>
